<?xml version="1.0" encoding="UTF-8" standalone="no"?>
<svg
   xmlns:dc="http://purl.org/dc/elements/1.1/"
   xmlns:cc="http://creativecommons.org/ns#"
   xmlns:rdf="http://www.w3.org/1999/02/22-rdf-syntax-ns#"
   xmlns:svg="http://www.w3.org/2000/svg"
   xmlns="http://www.w3.org/2000/svg"
   id="svg8"
   version="1.1"
   viewBox="0 0 210 297"
   height="297mm"
   width="210mm">
  <defs
     id="defs2">
    <linearGradient
       x1="0"
       y1="0"
       x2="1"
       y2="0"
       gradientUnits="userSpaceOnUse"
       gradientTransform="matrix(508.74609,3.3470137,3.3470137,-508.74609,78.604889,118.08229)"
       spreadMethod="pad"
       id="linearGradient36">
      <stop
         style="stop-opacity:1;stop-color:#252860"
         offset="0"
         id="stop32" />
      <stop
         style="stop-opacity:1;stop-color:#3d429b"
         offset="1"
         id="stop34" />
    </linearGradient>
    <linearGradient
       x1="0"
       y1="0"
       x2="1"
       y2="0"
       gradientUnits="userSpaceOnUse"
       gradientTransform="matrix(508.74609,3.3470137,3.3470137,-508.74609,78.596497,119.35867)"
       spreadMethod="pad"
       id="linearGradient56">
      <stop
         style="stop-opacity:1;stop-color:#252860"
         offset="0"
         id="stop52" />
      <stop
         style="stop-opacity:1;stop-color:#3d429b"
         offset="1"
         id="stop54" />
    </linearGradient>
    <linearGradient
       x1="0"
       y1="0"
       x2="1"
       y2="0"
       gradientUnits="userSpaceOnUse"
       gradientTransform="matrix(508.74609,3.3470137,3.3470137,-508.74609,78.58641,120.89085)"
       spreadMethod="pad"
       id="linearGradient76">
      <stop
         style="stop-opacity:1;stop-color:#252860"
         offset="0"
         id="stop72" />
      <stop
         style="stop-opacity:1;stop-color:#3d429b"
         offset="1"
         id="stop74" />
    </linearGradient>
    <linearGradient
       x1="0"
       y1="0"
       x2="1"
       y2="0"
       gradientUnits="userSpaceOnUse"
       gradientTransform="matrix(508.74609,3.3470137,3.3470137,-508.74609,78.593994,119.73846)"
       spreadMethod="pad"
       id="linearGradient96">
      <stop
         style="stop-opacity:1;stop-color:#252860"
         offset="0"
         id="stop92" />
      <stop
         style="stop-opacity:1;stop-color:#3d429b"
         offset="1"
         id="stop94" />
    </linearGradient>
  </defs>
  <metadata
     id="metadata5">
    <rdf:RDF>
      <cc:Work
         rdf:about="">
        <dc:format>image/svg+xml</dc:format>
        <dc:type
           rdf:resource="http://purl.org/dc/dcmitype/StillImage" />
        <dc:title></dc:title>
      </cc:Work>
    </rdf:RDF>
  </metadata>
  <g
     id="layer1">
    <g
       id="g18"
       transform="matrix(0.35277777,0,0,-0.35277777,-10.564559,116.03429)">
      <g
         id="g20">
        <g
           id="g22">
          <g
             id="g28">
            <g
               id="g30">
              <path
                 d="m 518.856,205.857 c -10.622,0 -16.797,-4.114 -20.917,-13.939 v 0 C 478.92,146.557 459.898,101.196 440.886,55.832 v 0 c -2.659,-6.341 -5.277,-12.699 -8.041,-19.357 v 0 c 15.171,0 29.919,-0.032 44.664,0.096 v 0 c 0.777,0.006 1.912,1.244 2.255,2.147 v 0 c 2.521,6.649 4.986,13.325 7.239,20.069 v 0 c 0.754,2.256 1.738,3.074 4.215,3.054 v 0 c 16.359,-0.13 32.722,-0.182 49.081,0.029 v 0 c 3.278,0.042 4.217,-1.097 4.742,-4.034 v 0 c 1.264,-7.077 2.865,-14.095 4.358,-21.267 v 0 h 40.797 v 1.204 c -1.318,5.717 -2.736,11.415 -3.937,17.156 v 0 c -9.379,44.825 -18.713,89.659 -28.07,134.488 v 0 c -1.139,5.461 -2.332,10.91 -3.515,16.44 v 0 c -8.094,0 -16.053,0.001 -23.968,0.001 v 0 c -3.957,0 -7.904,0 -11.85,-0.001 m 4.492,-47.052 c 0.176,-0.034 0.351,-0.068 0.526,-0.103 v 0 c 4.289,-20.566 8.579,-41.13 12.926,-61.975 v 0 h -35.957 c 7.557,20.845 15.031,41.462 22.505,62.078"
                 style="fill:url(#linearGradient36);stroke:none"
                 id="path38" />
            </g>
          </g>
        </g>
      </g>
      <g
         id="g40">
        <g
           id="g42">
          <g
             id="g48">
            <g
               id="g50">
              <path
                 d="m 391.984,208.872 c -0.842,-0.204 -1.676,-0.497 -2.531,-0.6 v 0 c -15.402,-1.866 -29.859,-6.308 -42.036,-16.316 v 0 c -13.995,-11.503 -20.761,-26.307 -18.8,-44.539 v 0 c 1.309,-12.177 8.217,-21.338 17.754,-28.209 v 0 c 7.441,-5.361 15.793,-9.442 23.655,-14.231 v 0 c 5.035,-3.066 10.345,-5.889 14.763,-9.709 v 0 c 6.722,-5.812 6.013,-15.113 -1.368,-20.062 v 0 c -3.402,-2.28 -7.495,-4.053 -11.509,-4.804 v 0 c -15.426,-2.89 -30.312,-0.234 -44.724,5.573 v 0 c -3.017,1.216 -5.969,2.592 -9.114,3.966 v 0 c -2.683,-12.565 -5.293,-24.788 -7.899,-36.992 v 0 c 0.552,-0.344 0.865,-0.604 1.224,-0.752 v 0 c 1.205,-0.493 2.41,-1 3.647,-1.406 v 0 c 18.448,-6.061 37.375,-8.224 56.683,-6.426 v 0 c 13.827,1.287 27.098,4.761 38.826,12.54 v 0 c 18.649,12.373 26.859,29.861 24.092,52.061 v 0 c -1.565,12.553 -9.016,21.837 -19.233,28.59 v 0 c -8.675,5.733 -18.047,10.401 -26.974,15.769 v 0 c -3.926,2.362 -7.855,4.924 -11.17,8.046 v 0 c -4.808,4.529 -4.741,10.736 0.294,15.049 v 0 c 2.933,2.514 6.706,4.509 10.434,5.547 v 0 c 9.17,2.556 18.562,1.785 27.727,-0.239 v 0 c 6.702,-1.478 13.221,-3.782 20.042,-5.781 v 0 c 2.489,11.636 5.033,23.53 7.639,35.716 v 0 c -5.171,1.471 -9.934,3.037 -14.799,4.158 v 0 c -5.33,1.229 -10.754,2.052 -16.138,3.051 v 0 z"
                 style="fill:url(#linearGradient56);stroke:none"
                 id="path58" />
            </g>
          </g>
        </g>
      </g>
      <g
         id="g60">
        <g
           id="g62">
          <g
             id="g68">
            <g
               id="g70">
              <path
                 d="M 206.596,203.262 C 192.265,166.801 177.856,130.37 163.452,93.937 v 0 c -0.274,-0.692 -0.693,-1.328 -1.294,-2.458 v 0 c -0.387,1.899 -0.676,3.241 -0.93,4.59 v 0 c -5.816,30.836 -11.578,61.682 -17.466,92.505 v 0 c -2.08,10.888 -10.02,17.278 -21.02,17.281 v 0 c -23.192,0.008 -46.383,0.002 -69.575,0.002 v 0 c -4.833,0 -4.833,0 -4.898,-5.08 v 0 c 0.54,-0.136 1.111,-0.285 1.686,-0.422 v 0 c 12.986,-3.082 25.716,-6.877 37.98,-12.277 v 0 c 7.651,-3.369 11.73,-8.859 13.768,-16.896 v 0 c 11.108,-43.813 22.529,-87.546 33.764,-131.326 v 0 c 0.646,-2.521 1.562,-3.505 4.371,-3.467 v 0 c 13.25,0.183 26.504,0.139 39.757,0.029 v 0 c 2.421,-0.019 3.64,0.607 4.637,2.995 v 0 c 20.91,50.124 41.933,100.2 62.929,150.288 v 0 c 2.199,5.246 4.369,10.504 6.661,16.018 v 0 c -1.232,0.058 -2.101,0.133 -2.97,0.133 v 0 c -3.791,0.002 -7.582,0 -11.372,-0.003 v 0 c -9.663,-0.007 -19.326,-0.014 -28.988,0.063 v 0 c -0.027,0 -0.053,0 -0.079,0 v 0 c -2.095,0 -3.045,-0.683 -3.817,-2.65"
                 style="fill:url(#linearGradient76);stroke:none"
                 id="path78" />
            </g>
          </g>
        </g>
      </g>
      <g
         id="g80">
        <g
           id="g82">
          <g
             id="g88">
            <g
               id="g90">
              <path
                 d="M 272.465,205.677 C 260.405,149.315 248.375,93.092 236.258,36.471 v 0 h 3.61 c 12.047,0 24.097,0.14 36.139,-0.092 v 0 c 3.358,-0.065 4.505,0.964 5.189,4.199 v 0 c 9.847,46.577 19.839,93.123 29.794,139.677 v 0 c 1.8,8.417 3.589,16.838 5.418,25.422 v 0 z"
                 style="fill:url(#linearGradient96);stroke:none"
                 id="path98" />
            </g>
          </g>
        </g>
      </g>
    </g>
  </g>
</svg>
