<?xml version="1.0" encoding="utf-8"?>
<svg id="master-artboard" viewBox="0 0 1400 980" version="1.1" xmlns="http://www.w3.org/2000/svg" x="0px" y="0px" enable-background="new 0 0 1400 980" width="1400px" height="980px">

























<g>
	<path fill="#14141D" d="M764.5,250.8c0,4.1-3.4,7.5-7.5,7.5H546.6c-4.1,0-7.5-3.4-7.5-7.5V125c0-4.2,3.4-7.5,7.5-7.5H757&#10;&#9;&#9;c4.1,0,7.5,3.4,7.5,7.5V250.8z"/>
	<g>
		<path d="M 642.7999877929688 209.10000610351562 L 631.7999877929688 209.10000610351562 L 638.7000122070312 166.8000030517578 L 649.7000122070312 166.8000030517578 Z" fill="#14141D"/>
		<path fill="#14141D" d="M622.6,166.8l-10.5,29.1l-1.2-6.3v0l-3.7-19c0,0-0.4-3.8-5.2-3.8h-17.4l-0.2,0.7c0,0,5.3,1.1,11.5,4.8&#10;&#9;&#9;&#9;l9.6,36.7h11.5l17.5-42.3H622.6z"/>
		<path fill="#14141D" d="M709.2,209.1h10.1l-8.8-42.3h-8.9c-4.1,0-5.1,3.2-5.1,3.2l-16.4,39.1h11.5l2.3-6.3h14L709.2,209.1z&#10;&#9;&#9;&#9; M697.1,194.1l5.8-15.8l3.3,15.8H697.1z"/>
		<path fill="#14141D" d="M681,176.9l1.6-9.1c0,0-4.8-1.8-9.9-1.8c-5.5,0-18.4,2.4-18.4,14c0,10.9,15.2,11.1,15.2,16.8&#10;&#9;&#9;&#9;c0,5.7-13.7,4.7-18.2,1.1l-1.6,9.5c0,0,4.9,2.4,12.4,2.4c7.5,0,18.9-3.9,18.9-14.5c0-11-15.4-12-15.4-16.8&#10;&#9;&#9;&#9;C665.5,173.7,676.3,174.3,681,176.9z"/>
	</g>
	<path fill="#14141D" d="M610.8,189.6l-3.7-19c0,0-0.4-3.8-5.2-3.8h-17.4l-0.2,0.7c0,0,8.3,1.7,16.3,8.2&#10;&#9;&#9;C608.3,181.9,610.8,189.6,610.8,189.6z"/>
</g>








<g transform="matrix(1, 0, 0, 1, 4.589426278074654, 4.589426675107745)">
	<path fill="#3957A7" d="M760.5,246.8c0,4.1-3.4,7.5-7.5,7.5H542.6c-4.1,0-7.5-3.4-7.5-7.5V121c0-4.2,3.4-7.5,7.5-7.5H753&#10;&#9;&#9;c4.1,0,7.5,3.4,7.5,7.5V246.8z"/>
	<g>
		<path d="M 638.7999877929688 205.10000610351562 L 627.7999877929688 205.10000610351562 L 634.7000122070312 162.8000030517578 L 645.7000122070312 162.8000030517578 Z" fill="#FFFFFF"/>
		<path fill="#FFFFFF" d="M618.6,162.8l-10.5,29.1l-1.2-6.3v0l-3.7-19c0,0-0.4-3.8-5.2-3.8h-17.4l-0.2,0.7c0,0,5.3,1.1,11.5,4.8&#10;&#9;&#9;&#9;l9.6,36.7h11.5l17.5-42.3H618.6z"/>
		<path fill="#FFFFFF" d="M705.2,205.1h10.1l-8.8-42.3h-8.9c-4.1,0-5.1,3.2-5.1,3.2l-16.4,39.1h11.5l2.3-6.3h14L705.2,205.1z&#10;&#9;&#9;&#9; M693.1,190.1l5.8-15.8l3.3,15.8H693.1z"/>
		<path fill="#FFFFFF" d="M677,172.9l1.6-9.1c0,0-4.8-1.8-9.9-1.8c-5.5,0-18.4,2.4-18.4,14c0,10.9,15.2,11.1,15.2,16.8&#10;&#9;&#9;&#9;c0,5.7-13.7,4.7-18.2,1.1l-1.6,9.5c0,0,4.9,2.4,12.4,2.4c7.5,0,18.9-3.9,18.9-14.5c0-11-15.4-12-15.4-16.8&#10;&#9;&#9;&#9;C661.5,169.7,672.3,170.3,677,172.9z"/>
	</g>
	<path fill="#F9A533" d="M606.8,185.6l-3.7-19c0,0-0.4-3.8-5.2-3.8h-17.4l-0.2,0.7c0,0,8.3,1.7,16.3,8.2&#10;&#9;&#9;C604.3,177.9,606.8,185.6,606.8,185.6z"/>
</g>









</svg>