<?xml version="1.0" encoding="UTF-8" standalone="no"?>
<svg
   xmlns:dc="http://purl.org/dc/elements/1.1/"
   xmlns:cc="http://creativecommons.org/ns#"
   xmlns:rdf="http://www.w3.org/1999/02/22-rdf-syntax-ns#"
   xmlns:svg="http://www.w3.org/2000/svg"
   xmlns="http://www.w3.org/2000/svg"
   xmlns:xlink="http://www.w3.org/1999/xlink"
   id="svg8"
   version="1.1"
   viewBox="0 0 210 297"
   height="297mm"
   width="210mm">
  <defs
     id="defs2">
    <linearGradient
       id="grad1">
      <stop
         offset="0%"
         stop-color="#0a2855"
         stop-opacity="1.0000"
         id="stop10" />
      <stop
         offset="100%"
         stop-color="#102a83"
         stop-opacity="1.0000"
         id="stop12" />
    </linearGradient>
    <linearGradient
       xlink:href="#grad1"
       id="grad2"
       x1="11.065756"
       y1="86.142631"
       x2="11.065756"
       y2="190.69729"
       gradientTransform="matrix(0.46521203,0,0,0.15047835,-7.8095172,-13.801946)"
       gradientUnits="userSpaceOnUse" />
  </defs>
  <metadata
     id="metadata5">
    <rdf:RDF>
      <cc:Work
         rdf:about="">
        <dc:format>image/svg+xml</dc:format>
        <dc:type
           rdf:resource="http://purl.org/dc/dcmitype/StillImage" />
        <dc:title></dc:title>
      </cc:Work>
    </rdf:RDF>
  </metadata>
  <g
     id="layer1">
    <path
       d="M 195.48376,93.69022 V 93.31319 L 183.39833,36.241399 c -3.67586,-0.267124 -8.50747,-0.0758 -12.28384,-0.03836 -4.22857,0.04188 -5.76127,2.037239 -7.11017,5.185538 -1.35335,3.15871 -21.65821,51.332513 -21.79005,52.332273 l 15.5548,-5.3e-4 3.1446,-8.57746 18.86905,0.006 c 0.52366,1.38807 0.81269,3.54397 1.13146,5.03559 0.87464,4.09289 0.30734,3.58134 2.37453,3.54708 4.03413,-0.0669 8.18491,0.12102 12.19505,-0.0413 z M 11.6472,37.118175 v 0.847407 c 4.222063,0.689822 12.918493,3.478475 15.773215,5.576145 2.064835,1.51728 2.375959,4.33988 3.159575,7.38873 l 8.835893,34.163823 c 0.687493,2.72743 1.35509,5.98178 2.235835,8.55869 l 15.696481,0.0691 c 1.29419,-2.49826 10.80506,-25.68281 12.08641,-28.78139 l 9.00702,-21.550663 c 0.63154,-1.54842 2.70595,-5.829538 2.92812,-7.149253 l -15.49074,-0.03355 -15.39172,38.750926 c -0.74993,-1.1925 -5.46155,-28.331233 -6.25059,-32.380263 -1.34858,-6.920043 -5.827847,-6.37823 -12.827029,-6.373282 -6.294516,0.0044 -13.070019,-0.241512 -19.302835,0.029 z m 91.68847,41.904315 c -0.53504,0.94628 -2.72061,11.20071 -2.72071,12.62557 10.97447,4.62505 30.82402,4.83799 38.92159,-6.01318 2.37749,-3.18609 4.20106,-8.50019 3.13076,-13.74654 -1.93722,-9.49602 -12.54022,-11.84116 -18.15404,-16.05904 -5.96066,-4.478363 -0.0503,-10.533383 11.95692,-8.027863 2.72026,0.56762 4.36777,1.44693 6.67578,2.12249 l 2.57622,-12.283597 c -5.45967,-1.408483 -8.11715,-2.473854 -14.58201,-2.449354 -8.62263,0.03278 -18.70805,3.41167 -22.6524,11.356791 -4.76206,9.592183 -0.0844,17.378233 8.75487,22.071573 3.18262,1.68984 9.04209,4.06185 9.92413,7.08543 1.55345,5.32543 -5.56046,7.06745 -10.0434,6.8698 -8.47574,-0.37375 -8.94919,-2.13825 -13.78771,-3.55208 z m -27.851021,14.67268 14.86747,0.018 12.313991,-57.481505 -14.823091,-0.01884 z m 89.744131,-20.41978 12.10427,0.0507 -4.35195,-21.181163 c -0.57959,0.810393 -7.41828,19.924843 -7.75232,21.130423 z"
       style="fill:url(#grad2);stroke-width:0.26458332"
       id="path18" />
  </g>
</svg>
